<svg xmlns="http://www.w3.org/2000/svg" xmlns:xlink="http://www.w3.org/1999/xlink" width="1000" zoomAndPan="magnify" viewBox="0 0 750 749.999995" height="1000" preserveAspectRatio="xMidYMid meet" version="1.0"><defs><g/><clipPath id="54349bc0f3"><path d="M 157.890625 496.964844 L 283 496.964844 L 283 674 L 157.890625 674 Z M 157.890625 496.964844 " clip-rule="nonzero"/></clipPath><clipPath id="55ce3aa4cb"><path d="M 220.5 496.964844 L 283.105469 675 L 157.890625 675 L 220.5 496.964844 " clip-rule="nonzero"/></clipPath><clipPath id="a8a91ef2cd"><path d="M 0 75 L 282.75 75 L 282.75 429 L 0 429 Z M 0 75 " clip-rule="nonzero"/></clipPath></defs><g clip-path="url(#54349bc0f3)"><g clip-path="url(#55ce3aa4cb)"><path fill="#f6f1ef" d="M 157.890625 496.964844 L 282.464844 496.964844 L 282.464844 673.441406 L 157.890625 673.441406 Z M 157.890625 496.964844 " fill-opacity="0" fill-rule="nonzero"/></g></g><g fill="#88acd0" fill-opacity="1"><g transform="translate(220.498982, 646.96556)"><g><path d="M 134.398438 0 C 241.199219 0 333.601562 -22.800781 333.601562 -116.398438 C 333.601562 -185.398438 268.199219 -222 183 -231.601562 C 267.601562 -241.800781 297.601562 -279 297.601562 -328.199219 C 297.601562 -386.398438 256.199219 -427.800781 134.398438 -427.800781 C 100.199219 -427.800781 58.800781 -421.800781 23.398438 -421.199219 L 18 -421.199219 L 18 -415.800781 C 21.601562 -415.800781 31.800781 -409.199219 31.800781 -369.601562 L 31.800781 -51.601562 C 31.800781 -12.601562 21.601562 -5.398438 18 -5.398438 L 18 0 Z M 291 -116.398438 C 291 0 134.398438 -5.398438 134.398438 -5.398438 L 74.398438 -5.398438 L 74.398438 -229.199219 L 136.800781 -229.199219 C 156 -228.601562 291 -224.398438 291 -116.398438 Z M 74.398438 -234.601562 L 74.398438 -419.398438 C 95.398438 -421.199219 115.800781 -423 134.398438 -423 C 186.601562 -423 255.601562 -402.601562 255.601562 -328.199219 C 255.601562 -254.398438 186.601562 -234 134.398438 -234 L 134.398438 -234.601562 Z M 74.398438 -234.601562 "/></g></g></g><g fill="#88acd0" fill-opacity="1"><g transform="translate(82.462866, 433.112559)"><g><path d="M 25.800781 -156.601562 C 81.601562 52.199219 382.800781 51 421.199219 -144 L 416.398438 -145.199219 C 381 33.601562 122.398438 33 68.398438 -168 C 43.199219 -261.601562 74.398438 -385.199219 177.601562 -412.800781 C 264 -435.601562 337.199219 -371.398438 374.398438 -297 L 379.800781 -297 L 393.601562 -349.800781 C 342 -410.398438 258.601562 -439.800781 176.398438 -417.601562 C 62.398438 -387 -4.800781 -270.601562 25.800781 -156.601562 Z M 25.800781 -156.601562 "/></g></g></g><g fill="#88acd0" fill-opacity="1"><g transform="translate(454.778788, 521.15188)"><g><path d="M 256.5 -351 L 299 -351 L 299 -346.5 C 297 -346.5 294.664062 -345.582031 292 -343.75 C 289.332031 -341.914062 286.332031 -338.75 283 -334.25 C 279.664062 -329.75 276.164062 -323.832031 272.5 -316.5 C 268.832031 -309.164062 265.164062 -299.832031 261.5 -288.5 L 172 -28 L 181.5 0 L 144 0 L 48.5 -278.5 C 45.164062 -287.832031 41.914062 -296.664062 38.75 -305 C 35.582031 -313.332031 32.582031 -320.582031 29.75 -326.75 C 26.914062 -332.914062 24.25 -337.75 21.75 -341.25 C 19.25 -344.75 17 -346.5 15 -346.5 L 15 -351 L 74 -351 L 74 -346.5 C 72 -346.5 71.332031 -341.914062 72 -332.75 C 72.664062 -323.582031 75.164062 -312 79.5 -298 L 170 -34.5 L 257 -289.5 C 270 -327.5 269.832031 -346.5 256.5 -346.5 Z M 256.5 -351 "/></g></g></g><g clip-path="url(#a8a91ef2cd)"><path fill="#88acd0" d="M 53.113281 76.304688 C 57.347656 82.972656 56.515625 91.640625 56.097656 98.925781 C 55.414062 109.824219 53.894531 120.640625 52.902344 131.644531 C 52.613281 136.007812 52.265625 140.398438 52.316406 144.789062 C 52.289062 150.28125 52.449219 155.78125 52.929688 161.257812 C 53.054688 163.875 54.554688 178.425781 57.167969 192.78125 C 59.796875 207.132812 63.613281 221.195312 64.242188 223.539062 C 65.875 228.734375 67.304688 234.007812 69.09375 239.160156 C 71.097656 244.339844 72.90625 249.601562 75.0625 254.71875 C 77.34375 259.777344 79.394531 264.953125 81.859375 269.929688 C 80.273438 265.566406 79.113281 261.019531 78.253906 256.511719 C 77.292969 251.761719 77.046875 246.832031 76.859375 242.003906 C 76.613281 237.199219 76.757812 232.367188 77.148438 227.5625 C 77.40625 224.136719 77.753906 220.804688 78.371094 217.453125 C 78.289062 217.261719 78.246094 217.042969 78.300781 216.789062 C 78.832031 214.355469 77.832031 211.476562 77.859375 209.023438 C 77.835938 204.832031 78.914062 200.527344 79.796875 196.402344 C 80.691406 192.007812 81.542969 187.652344 82.632812 183.300781 C 83.664062 178.976562 84.683594 174.726562 86.140625 170.511719 C 88.277344 163.8125 90.945312 156.703125 95.371094 150.953125 C 96.773438 149.066406 101.640625 143.511719 105.238281 145.027344 C 108.542969 146.40625 105.378906 153.859375 105.007812 155.75 C 103.359375 163.6875 101.5625 171.734375 99.371094 179.816406 C 97.167969 187.339844 94.828125 194.605469 91.121094 202.144531 C 88.671875 207.457031 86.289062 215.230469 81 219.457031 C 80.875 219.558594 80.738281 219.613281 80.613281 219.671875 C 80.265625 222.195312 79.980469 224.753906 79.796875 227.34375 C 79.367188 232.304688 79.296875 237.253906 79.519531 242.222656 C 79.65625 247.226562 80.078125 252.246094 81.078125 257.152344 C 82.628906 266.5 87.03125 274.976562 89.242188 284.246094 L 95.820312 295.539062 C 106.265625 312.472656 118.332031 328.53125 132.367188 342.679688 L 137.347656 347.585938 C 138.851562 349.066406 140.910156 350.519531 142.109375 352.277344 C 140.207031 349.496094 138.15625 346.824219 136.535156 343.964844 C 135.238281 341.640625 133.851562 339.410156 132.667969 337.054688 C 131.554688 334.625 130.542969 332.175781 129.773438 329.628906 C 128.828125 326.492188 128.082031 323.300781 127.492188 320.117188 C 126.90625 316.929688 126.738281 313.539062 126.53125 310.335938 L 126.421875 307.53125 C 125.074219 304.703125 123.25 302.195312 122.328125 299.132812 C 121.003906 294.648438 119.941406 290.140625 118.953125 285.707031 C 118.046875 281.40625 117.585938 276.925781 117.164062 272.605469 C 116.707031 268.3125 116.777344 263.875 117.226562 259.46875 C 117.566406 256.171875 117.757812 252.535156 118.546875 248.914062 C 119.410156 245.246094 120.699219 241.699219 122.878906 238.734375 C 124.566406 236.433594 126.640625 235.136719 128.328125 237.308594 C 129.292969 238.554688 129.28125 240.671875 129.597656 242.195312 C 130.449219 246.332031 131.675781 250.25 132.394531 254.484375 C 133.019531 258.550781 133.984375 262.390625 134.550781 266.519531 C 135.054688 270.613281 135.570312 274.765625 136.097656 279.035156 C 136.683594 287.894531 139.53125 301.816406 129.597656 310.082031 C 129.695312 315.199219 130.257812 320.140625 131.246094 324.847656 C 131.796875 327.53125 132.835938 330.636719 134.160156 333.898438 C 135.472656 337.171875 137.402344 340.277344 139.207031 343.414062 C 141.050781 346.503906 142.9375 349.457031 144.621094 351.960938 C 146.398438 354.367188 148.011719 356.265625 149.066406 357.539062 C 152.25 361.207031 155.824219 364.683594 159.746094 367.710938 C 163.78125 370.582031 167.839844 373.464844 171.8125 376.292969 C 175.792969 379.433594 180.257812 381.863281 184.484375 384.644531 L 190.910156 388.695312 C 192.628906 389.875 195.847656 390.792969 197.234375 392.304688 C 193.917969 388.914062 191.527344 384.476562 189.261719 380.160156 C 187.015625 375.8125 184.976562 371.421875 182.738281 367.351562 C 182.457031 367.351562 182.179688 367.222656 181.964844 366.917969 C 178.457031 361.871094 172.550781 358.800781 168.453125 354.339844 C 164.824219 349.789062 161.839844 344.839844 159.308594 339.726562 C 157.054688 335.113281 155.449219 330.023438 154.167969 325.09375 C 153.566406 322.589844 153.039062 320.140625 152.820312 317.542969 C 152.636719 314.917969 152.632812 312.277344 152.828125 309.628906 C 152.871094 309.105469 153.425781 308.585938 153.921875 308.414062 C 158.914062 306.785156 162.375 310.851562 165.421875 315.796875 C 166.882812 318.324219 168.121094 321.191406 169.164062 323.804688 C 170.207031 326.40625 171.261719 328.527344 171.898438 329.9375 C 174.804688 335.816406 177.566406 342.214844 181.035156 348.015625 C 183.84375 353.042969 188.195312 361.78125 186.429688 368.726562 C 186.402344 368.839844 186.34375 368.910156 186.296875 369 C 189.253906 374.839844 191.972656 381.148438 195.859375 386.761719 C 198.226562 389.855469 200.757812 392.917969 203.933594 395.289062 C 205.820312 396.695312 208.140625 397.519531 209.921875 399.039062 C 211.132812 400.039062 212.816406 400.71875 214.261719 401.308594 L 223.96875 405.664062 C 242.359375 414.207031 261.746094 420.300781 281.199219 425.824219 C 282.722656 426.269531 282.046875 428.863281 280.511719 428.417969 C 250.25 420.445312 220.769531 408.941406 193.472656 393.355469 C 188.667969 390.625 184.089844 387.503906 179.390625 384.601562 C 179.320312 384.574219 179.25 384.566406 179.1875 384.523438 C 173.390625 380.9375 167.324219 378.523438 160.570312 377.167969 C 157.238281 376.433594 153.6875 376.023438 150.265625 375.441406 C 146.835938 374.839844 143.367188 374.230469 139.980469 373.632812 L 137.691406 373.203125 C 137.488281 373.230469 137.269531 373.214844 137.035156 373.132812 L 136.578125 372.988281 C 134.386719 372.523438 132.210938 372.066406 130.039062 371.605469 C 124.347656 370.964844 118.328125 371.042969 112.789062 370.074219 C 109.28125 369.433594 105.832031 368.492188 102.433594 367.265625 C 99.160156 365.925781 95.984375 364.25 92.835938 362.324219 C 89.164062 360.035156 85.523438 357.566406 82.054688 354.875 C 78.683594 352.117188 75.324219 349.285156 71.835938 346.5625 C 65.847656 342.09375 59.925781 337.808594 55.464844 331.582031 C 54.949219 330.863281 55.21875 329.632812 56.085938 329.480469 C 68.320312 327.261719 79.28125 331.265625 89.214844 338.351562 C 95.625 343.378906 101.84375 348.847656 108.121094 353.929688 C 111.15625 356.523438 114.4375 359.28125 117.882812 361.765625 C 121.292969 364.28125 124.8125 366.585938 128.464844 368.046875 C 141.628906 371.210938 154.75 372.355469 166.558594 375.742188 C 150.214844 364.132812 135.351562 350.445312 122.089844 335.421875 C 119.117188 332.851562 115.75 330.652344 112.570312 328.285156 C 109.394531 325.921875 106.070312 323.675781 102.660156 321.480469 C 99.230469 319.371094 95.960938 317.011719 92.617188 314.816406 C 89.453125 312.796875 85.277344 309.882812 81.484375 308.972656 C 77.519531 308.003906 73.660156 307.058594 69.738281 305.734375 C 65.769531 304.363281 61.8125 302.746094 57.917969 300.855469 C 54.085938 298.933594 50.507812 296.648438 46.933594 294.097656 C 44.0625 292.023438 41.101562 289.96875 38.226562 287.789062 C 35.46875 285.570312 32.734375 283.242188 30.121094 280.707031 C 26.675781 277.347656 23.476562 273.542969 21.097656 269.308594 C 20.5 268.304688 15.066406 258.683594 19.175781 259.382812 C 26.070312 260.546875 32.925781 263.554688 39.230469 267.304688 C 45.808594 270.972656 51.84375 275.386719 56.945312 279.636719 C 62.867188 284.144531 67.59375 289.566406 73.003906 294.332031 C 76.71875 297.539062 80.203125 300.890625 83.675781 304.171875 C 87.226562 307.40625 91.042969 310.40625 94.882812 313.160156 C 101.019531 317.753906 108.125 321.671875 114.234375 326.273438 L 107.78125 317.886719 C 107.445312 317.894531 107.121094 317.761719 106.871094 317.414062 C 100.449219 307.949219 90.277344 299.929688 82.5625 291.042969 C 74.519531 281.859375 66.875 272.109375 58.875 262.46875 C 58.558594 262.539062 58.199219 262.484375 57.867188 262.1875 L 57.105469 261.542969 L 57.007812 261.488281 L 56.847656 261.324219 C 40.855469 247.058594 23.007812 232.101562 13.40625 210.9375 C 8.234375 199.75 6.078125 187.453125 4.085938 175.398438 C 1.9375 161.363281 -0.015625 147.367188 0.140625 133.171875 C 0.132812 131.855469 1.902344 131.152344 2.597656 132.378906 C 14.335938 152.632812 18.714844 175.523438 28 196.15625 C 32.820312 206.929688 38.296875 217.277344 42.949219 227.9375 C 44.554688 231.59375 46.320312 235.164062 48.035156 238.722656 C 49.722656 242.285156 51.578125 245.78125 53.746094 249.15625 C 55.832031 252.507812 57.945312 255.839844 60.140625 259.085938 C 62.496094 262.222656 64.855469 265.355469 67.1875 268.460938 C 70.214844 272.582031 73.667969 276.460938 76.929688 280.375 L 81.78125 286.234375 L 86.890625 291.890625 C 90.058594 295.320312 93.195312 298.851562 96.777344 302.054688 C 93.3125 297 90.503906 291.535156 87.339844 286.300781 C 87.136719 286.15625 86.960938 285.96875 86.882812 285.671875 L 86.785156 285.347656 C 85.113281 282.429688 83.710938 279.382812 82.164062 276.402344 C 72.046875 256.417969 64.261719 235.320312 58.558594 213.710938 C 58.050781 212.1875 55.351562 202.601562 52.554688 192.105469 C 49.789062 181.601562 47.144531 170.144531 45.179688 165.289062 C 40.882812 154.820312 40.40625 143.160156 39.941406 131.863281 L 39.882812 130.171875 C 39.652344 119.335938 41.773438 108.761719 43.519531 98.199219 C 44.785156 90.457031 45.597656 82.28125 50.84375 75.964844 C 51.507812 75.171875 52.632812 75.546875 53.113281 76.304688 Z M 53.113281 76.304688 " fill-opacity="1" fill-rule="nonzero"/></g></svg>